<?xml version="1.0" standalone="no"?>
<!DOCTYPE svg PUBLIC "-//W3C//DTD SVG 20010904//EN"
 "http://www.w3.org/TR/2001/REC-SVG-20010904/DTD/svg10.dtd">
<svg version="1.0" xmlns="http://www.w3.org/2000/svg"
 width="512.000000pt" height="512.000000pt" viewBox="0 0 512.000000 512.000000"
 preserveAspectRatio="xMidYMid meet">

<g transform="translate(0.000000,512.000000) scale(0.100000,-0.100000)"
fill="#37cc4b" stroke="none">
<path d="M2285 4675 c-543 -74 -1019 -339 -1377 -765 -147 -175 -295 -447
-372 -681 -75 -229 -106 -422 -106 -669 0 -247 31 -440 106 -669 151 -461 457
-854 879 -1131 178 -116 454 -231 675 -280 211 -47 495 -63 705 -40 382 43
751 191 1065 428 181 137 403 387 530 596 398 661 401 1508 6 2179 -125 213
-349 468 -536 609 -279 210 -582 344 -930 409 -148 27 -493 35 -645 14z m571
-435 c605 -103 1123 -548 1319 -1132 147 -439 115 -899 -91 -1309 -169 -338
-428 -597 -763 -765 -772 -384 -1701 -136 -2182 584 -379 566 -379 1319 0
1884 135 201 281 347 481 480 364 241 798 332 1236 258z"/>
<path d="M2480 3824 c-42 -18 -86 -58 -108 -99 -15 -26 -18 -86 -22 -490 l-5
-460 -460 -5 c-503 -5 -487 -3 -547 -67 -76 -80 -76 -206 0 -286 60 -64 44
-62 547 -67 l460 -5 5 -460 c5 -503 3 -487 67 -547 80 -76 206 -76 286 0 64
60 62 44 67 547 l5 460 460 5 c503 5 487 3 547 67 76 80 76 206 0 286 -60 64
-44 62 -547 67 l-460 5 -5 460 c-5 503 -3 487 -67 547 -58 56 -151 73 -223 42z"/>
</g>
</svg>
