<?xml version="1.0" standalone="no"?>
<!DOCTYPE svg PUBLIC "-//W3C//DTD SVG 20010904//EN"
 "http://www.w3.org/TR/2001/REC-SVG-20010904/DTD/svg10.dtd">
<svg version="1.0" xmlns="http://www.w3.org/2000/svg"
 width="512.000000pt" height="512.000000pt" viewBox="0 0 512.000000 512.000000"
 preserveAspectRatio="xMidYMid meet">

<g transform="translate(0.000000,512.000000) scale(0.100000,-0.100000)"
fill="#000000" stroke="none">
<path d="M1969 4278 c-16 -13 -416 -451 -476 -521 l-33 -38 0 -616 0 -616 -68
-71 c-38 -40 -97 -114 -131 -164 -68 -99 -76 -106 -134 -117 l-37 -7 0 71 c0
63 -3 75 -25 96 -24 25 -24 25 -238 25 -202 0 -216 -1 -241 -21 -37 -29 -37
-89 0 -118 24 -19 40 -21 185 -21 l159 0 0 -105 0 -105 -235 0 c-228 0 -235
-1 -255 -22 -25 -28 -26 -78 -1 -109 l19 -24 316 -3 316 -3 0 -389 0 -390
-309 0 c-297 0 -309 -1 -335 -21 -37 -29 -37 -89 0 -118 26 -20 38 -21 391
-21 l364 0 24 25 c18 18 25 35 25 65 0 22 3 40 8 40 4 0 70 -18 147 -40 308
-88 487 -115 704 -107 182 6 291 35 478 126 137 67 488 259 723 396 l113 65
613 0 613 0 28 24 28 24 3 1349 c2 741 0 1367 -3 1391 -4 24 -15 52 -26 63
-19 19 -49 19 -1357 19 -1056 0 -1341 -3 -1353 -12z m971 -527 c0 -390 4 -432
40 -451 11 -6 151 -10 343 -10 305 0 326 1 348 19 l24 19 3 401 3 401 419 0
419 0 3 -197 c2 -109 3 -682 3 -1273 l0 -1075 -910 0 c-961 0 -958 0 -1066 47
-59 25 -84 63 -75 113 8 43 32 62 168 133 293 154 387 234 403 347 14 87 -37
179 -120 216 -98 45 -289 9 -530 -98 -92 -41 -184 -70 -277 -87 l-38 -7 0 941
0 940 420 0 420 0 0 -379z m600 39 l0 -340 -220 0 -220 0 0 340 0 340 220 0
220 0 0 -340z m-1600 -694 l0 -905 -82 -43 c-45 -23 -117 -68 -160 -100 l-78
-58 0 838 1 837 152 167 c84 92 155 167 160 167 4 1 7 -406 7 -903z m954 -812
c24 -24 20 -41 -21 -84 -42 -44 -150 -111 -325 -200 -134 -69 -180 -113 -205
-199 -38 -133 24 -256 161 -316 95 -42 190 -57 395 -64 l194 -6 -201 -113
c-286 -160 -463 -247 -567 -278 -132 -39 -340 -45 -519 -14 -107 18 -401 92
-523 131 l-33 11 0 216 0 217 88 27 c102 31 175 76 315 194 242 204 335 252
626 319 41 9 131 42 200 72 208 91 376 126 415 87z m-1456 -446 c-26 -21 -132
-73 -165 -83 -22 -6 -23 -4 -23 71 0 103 -17 124 -102 124 -71 0 -76 15 -9 24
72 9 160 58 197 109 17 23 51 69 75 102 l44 60 3 -195 c2 -192 2 -195 -20
-212z"/>
<path d="M3539 2603 c-117 -123 -139 -151 -139 -183 0 -38 39 -80 75 -80 14 0
37 7 50 16 l25 16 0 -141 c0 -179 13 -211 86 -211 14 0 36 11 49 25 24 24 25
28 25 180 l0 156 26 -20 c54 -43 124 -10 124 58 0 34 -10 48 -96 139 -88 94
-99 102 -133 102 -32 0 -44 -8 -92 -57z"/>
<path d="M4053 2573 c-46 -49 -90 -101 -99 -116 -41 -75 44 -151 113 -102 l22
15 3 -151 3 -151 28 -24 c34 -29 66 -31 101 -3 l26 20 0 155 c0 85 3 154 8
154 4 0 16 -7 26 -15 62 -47 151 30 114 98 -7 14 -52 66 -99 116 -79 84 -89
91 -124 91 -35 0 -46 -7 -122 -87z"/>
<path d="M3455 1865 c-40 -40 -30 -96 22 -123 30 -16 762 -17 796 -1 49 22 61
86 22 124 l-24 25 -396 0 -396 0 -24 -25z"/>
</g>
</svg>
