<?xml version="1.0" standalone="no"?>
<!DOCTYPE svg PUBLIC "-//W3C//DTD SVG 20010904//EN"
 "http://www.w3.org/TR/2001/REC-SVG-20010904/DTD/svg10.dtd">
<svg version="1.0" xmlns="http://www.w3.org/2000/svg"
 width="512.000000pt" height="512.000000pt" viewBox="0 0 512.000000 512.000000"
 preserveAspectRatio="xMidYMid meet">

<g transform="translate(0.000000,512.000000) scale(0.100000,-0.100000)"
fill="#000000" stroke="none">
<path d="M1770 4310 c-348 -49 -657 -240 -845 -524 -141 -215 -200 -409 -199
-666 0 -165 11 -230 61 -382 132 -399 475 -702 895 -789 131 -27 324 -29 450
-5 610 116 1034 673 977 1283 -30 324 -193 630 -438 823 -158 124 -313 199
-501 241 -99 22 -307 32 -400 19z m403 -174 c182 -47 327 -128 470 -266 581
-557 337 -1530 -440 -1755 -229 -67 -504 -45 -723 56 -147 68 -307 200 -411
339 -61 82 -136 242 -165 355 -23 86 -27 121 -27 250 -1 163 16 260 69 391
138 346 464 602 834 654 105 14 283 4 393 -24z"/>
<path d="M1868 3970 c-29 -29 -30 -34 -26 -97 5 -74 27 -103 79 -103 51 0 69
30 69 114 0 69 -2 76 -26 95 -36 29 -60 26 -96 -9z"/>
<path d="M2241 3547 l-216 -213 -57 14 c-80 20 -152 -2 -213 -63 -62 -61 -84
-137 -63 -215 l14 -55 -93 -96 c-54 -56 -93 -105 -93 -116 0 -37 38 -73 77
-73 31 0 47 11 128 91 82 80 95 89 113 80 33 -17 132 -13 177 8 49 23 99 74
119 123 18 43 21 124 6 164 -11 27 -4 35 200 239 196 197 210 213 210 247 0
40 -35 78 -73 78 -14 0 -96 -74 -236 -213z m-263 -369 c51 -48 14 -138 -57
-138 -64 1 -103 56 -80 112 24 57 89 70 137 26z"/>
<path d="M1094 3191 c-26 -11 -54 -49 -54 -72 0 -9 9 -28 21 -43 19 -24 26
-26 95 -26 84 0 114 18 114 69 0 51 -29 74 -96 78 -32 1 -69 -1 -80 -6z"/>
<path d="M2620 3193 c-34 -13 -50 -37 -50 -74 0 -53 26 -69 110 -69 84 0 110
16 110 69 0 53 -26 74 -98 78 -31 1 -64 0 -72 -4z"/>
<path d="M1864 2449 c-29 -32 -27 -150 3 -180 29 -29 81 -28 105 2 27 32 25
152 -2 179 -27 27 -81 26 -106 -1z"/>
<path d="M3340 3353 c-51 -19 -68 -85 -30 -123 19 -19 33 -20 285 -20 222 0
265 -2 265 -14 0 -8 -115 -443 -255 -966 -140 -523 -255 -954 -255 -956 0 -2
-256 -4 -569 -4 l-568 0 -7 53 c-39 307 -437 363 -681 95 -28 -30 -62 -76 -75
-101 l-25 -47 -164 0 c-151 0 -163 1 -158 18 2 9 37 140 77 290 l73 273 -20
27 c-26 34 -83 42 -110 15 -23 -23 -176 -589 -175 -647 1 -47 26 -85 73 -108
28 -15 62 -18 205 -18 l171 0 6 -55 c3 -32 17 -76 33 -106 86 -156 286 -201
482 -107 81 38 190 141 228 213 l29 55 851 0 851 0 7 -47 c19 -143 131 -252
277 -269 166 -19 370 91 462 248 38 64 39 66 89 72 92 12 188 78 228 156 10
19 53 163 95 320 88 322 97 388 58 450 -13 21 -77 74 -155 131 l-133 95 -5
395 -5 396 -28 41 c-15 23 -46 52 -70 64 -41 22 -52 23 -358 26 l-317 3 -5 41
c-7 49 -47 94 -96 108 -37 10 -554 13 -581 3z m1300 -323 c5 -8 10 -45 10 -81
l0 -67 -192 -4 c-183 -3 -196 -5 -249 -29 -60 -28 -119 -81 -144 -129 -24 -47
-95 -320 -95 -365 1 -88 62 -164 150 -184 25 -6 167 -11 317 -11 l273 0 107
-77 c143 -101 155 -112 151 -143 -3 -24 -7 -25 -76 -30 -83 -6 -102 -20 -102
-75 0 -42 28 -66 85 -73 37 -4 46 -8 42 -21 -2 -9 -26 -96 -52 -194 -52 -192
-71 -232 -124 -259 -42 -21 -51 -16 -51 26 0 90 -72 196 -164 243 -77 40 -196
44 -292 11 -129 -45 -230 -129 -296 -245 l-30 -53 -199 0 c-145 0 -199 3 -199
12 0 6 28 116 62 244 l61 233 468 3 c443 3 468 4 488 22 27 25 28 79 1 106
-19 19 -33 20 -465 20 -311 0 -445 3 -445 11 0 9 249 944 287 1077 l15 53 324
-3 c276 -3 326 -5 334 -18z m10 -510 l0 -210 -239 0 c-132 0 -251 4 -265 10
-34 13 -33 27 8 180 37 139 43 155 79 188 37 35 68 40 250 41 l167 1 0 -210z
m-2669 -1101 c114 -58 98 -243 -31 -363 -72 -67 -148 -101 -230 -101 -113 0
-170 56 -170 167 0 198 266 382 431 297z m2479 3 c83 -41 106 -155 54 -261
-54 -108 -177 -196 -291 -207 -48 -5 -65 -2 -102 18 -68 35 -86 67 -86 146 1
97 53 187 147 256 85 63 207 84 278 48z"/>
<path d="M1752 1247 c-12 -13 -22 -36 -22 -51 0 -29 39 -76 64 -76 28 0 64 22
75 47 16 36 14 51 -14 78 -31 32 -74 33 -103 2z"/>
<path d="M4247 1259 c-46 -27 -41 -105 9 -128 35 -16 48 -14 78 10 51 40 23
129 -41 129 -16 0 -36 -5 -46 -11z"/>
<path d="M22 2127 c-39 -41 -25 -97 29 -116 21 -7 165 -11 431 -11 331 0 404
3 427 15 46 23 56 80 21 115 -19 19 -33 20 -453 20 l-434 0 -21 -23z"/>
<path d="M261 1804 c-12 -15 -21 -37 -21 -50 0 -28 30 -61 62 -69 13 -3 137
-5 277 -3 252 3 253 3 272 27 25 30 24 72 -1 99 -20 22 -26 22 -295 22 l-274
0 -20 -26z"/>
<path d="M501 1484 c-26 -34 -27 -68 -1 -94 27 -27 56 -33 161 -29 81 4 93 6
110 28 26 32 24 73 -4 99 -21 20 -34 22 -134 22 -109 0 -112 -1 -132 -26z"/>
</g>
</svg>
