<?xml version="1.0" standalone="no"?>
<!DOCTYPE svg PUBLIC "-//W3C//DTD SVG 20010904//EN"
 "http://www.w3.org/TR/2001/REC-SVG-20010904/DTD/svg10.dtd">
<svg version="1.0" xmlns="http://www.w3.org/2000/svg"
 width="512.000000pt" height="512.000000pt" viewBox="0 0 512.000000 512.000000"
 preserveAspectRatio="xMidYMid meet">

<g transform="translate(0.000000,512.000000) scale(0.100000,-0.100000)"
fill="#000000" stroke="none">
<path d="M2493 5008 c-21 -18 -105 -93 -187 -167 l-148 -134 -231 49 c-128 26
-243 48 -256 47 -47 -2 -66 -40 -141 -273 -40 -124 -73 -226 -74 -227 -2 -2
-103 -35 -227 -74 -123 -39 -232 -79 -242 -88 -39 -34 -39 -43 15 -295 l51
-244 -159 -176 c-87 -97 -163 -187 -168 -201 -6 -16 -6 -34 0 -50 5 -14 81
-104 168 -201 l159 -176 -49 -232 c-26 -127 -48 -242 -47 -255 2 -47 40 -66
275 -141 l226 -73 31 -95 30 -96 -240 -787 c-131 -433 -239 -797 -239 -809 0
-30 44 -70 77 -70 19 0 87 39 213 123 102 68 197 131 212 141 l27 18 105 -211
c60 -119 114 -215 125 -221 29 -15 66 -12 90 8 16 13 78 195 242 712 122 382
223 697 225 699 2 2 38 -29 81 -68 80 -73 106 -87 145 -77 13 3 58 38 101 77
43 39 80 70 81 68 2 -2 103 -317 225 -699 165 -519 226 -699 242 -712 24 -20
61 -23 90 -8 11 6 65 102 125 221 l105 211 27 -18 c15 -10 110 -73 212 -141
126 -84 194 -123 213 -123 33 0 77 40 77 70 0 12 -108 376 -240 810 l-239 787
31 95 32 96 225 72 c240 77 274 95 274 147 0 15 -22 130 -48 254 l-48 227 162
178 c89 99 164 189 167 202 4 12 4 32 0 45 -3 12 -78 102 -166 199 -88 97
-160 182 -160 190 0 7 22 116 49 242 51 236 52 255 15 287 -11 9 -120 49 -244
89 -124 40 -226 73 -227 74 -1 1 -34 103 -74 226 -39 124 -79 233 -88 243 -34
40 -43 39 -285 -13 -129 -27 -239 -50 -246 -50 -7 0 -78 60 -159 133 -213 193
-218 197 -250 197 -18 0 -44 -12 -68 -32z m239 -313 c154 -140 174 -155 207
-155 20 0 128 20 241 44 113 25 205 44 206 43 0 -1 29 -90 63 -197 76 -240 80
-249 101 -260 10 -5 112 -40 226 -76 115 -37 210 -67 211 -68 1 -1 -18 -93
-43 -206 -24 -113 -44 -221 -44 -241 0 -33 15 -53 155 -208 l156 -171 -156
-171 c-140 -156 -155 -175 -155 -208 0 -20 20 -129 45 -241 24 -112 43 -205
42 -206 -1 -1 -96 -31 -211 -68 -114 -36 -216 -71 -226 -76 -21 -11 -25 -20
-101 -260 -34 -107 -63 -196 -63 -197 -1 -1 -93 18 -206 43 -113 24 -221 44
-241 44 -33 0 -53 -15 -208 -155 l-171 -156 -171 156 c-155 140 -175 155 -208
155 -20 0 -128 -20 -241 -45 -112 -24 -205 -43 -206 -42 0 1 -31 96 -68 211
-36 114 -71 216 -76 226 -11 21 -17 23 -260 101 -107 35 -196 63 -197 64 -1 0
18 93 42 205 25 113 45 221 45 241 0 33 -15 53 -155 208 l-156 171 156 171
c140 156 155 175 155 208 0 20 -20 129 -45 241 -24 112 -43 205 -42 205 1 1
90 29 197 64 243 78 249 80 260 101 5 10 40 112 76 226 37 115 68 210 68 211
1 1 94 -18 206 -42 113 -25 221 -45 241 -45 33 0 52 15 205 154 93 85 170 155
172 155 2 1 80 -69 174 -154z m-537 -3035 l29 -30 -189 -592 c-103 -326 -193
-609 -200 -628 l-12 -35 -81 162 c-45 89 -90 167 -101 173 -39 20 -69 8 -216
-90 -82 -54 -151 -97 -153 -95 -3 2 71 254 164 559 168 552 169 555 189 537
11 -10 27 -21 36 -24 9 -3 117 16 240 43 123 26 233 49 245 49 11 1 33 -12 49
-29z m1019 -19 c126 -27 236 -47 245 -44 9 3 25 14 36 24 20 18 21 15 189
-537 93 -305 167 -557 164 -559 -2 -2 -71 41 -153 95 -147 98 -177 110 -216
90 -11 -6 -56 -84 -101 -173 l-81 -162 -12 35 c-7 19 -97 302 -200 628 l-189
592 29 30 c16 17 36 30 44 30 9 0 119 -22 245 -49z"/>
<path d="M2385 4224 c-634 -113 -1015 -759 -807 -1364 52 -150 142 -290 259
-403 87 -85 142 -124 252 -181 296 -152 634 -153 936 -3 104 51 193 118 280
209 89 92 132 152 182 253 150 302 149 640 -3 936 -58 112 -97 167 -185 257
-238 243 -583 355 -914 296z m395 -173 c314 -84 547 -318 633 -636 29 -107 30
-316 3 -419 -88 -331 -321 -564 -652 -652 -104 -28 -312 -26 -421 4 -288 78
-522 293 -613 565 -178 529 158 1075 715 1161 67 10 261 -3 335 -23z"/>
<path d="M2505 3735 c-21 -20 -25 -34 -25 -80 0 -44 -3 -55 -16 -55 -77 0
-189 -88 -212 -166 -28 -94 -8 -169 63 -239 63 -64 100 -75 244 -75 105 0 113
-1 136 -25 33 -32 33 -78 0 -110 -24 -25 -26 -25 -215 -25 -189 0 -191 0 -215
-25 -16 -15 -25 -36 -25 -55 0 -19 9 -40 25 -55 22 -23 32 -25 120 -25 l95 0
0 -55 c0 -67 29 -105 80 -105 51 0 80 38 80 105 0 44 3 55 16 55 77 0 189 88
212 166 28 94 8 169 -63 239 -63 64 -100 75 -244 75 -105 0 -113 1 -136 25
-16 15 -25 36 -25 55 0 19 9 40 25 55 24 25 26 25 215 25 189 0 191 0 215 25
33 32 33 78 0 110 -22 23 -32 25 -120 25 l-95 0 0 55 c0 67 -29 105 -80 105
-19 0 -40 -9 -55 -25z"/>
</g>
</svg>
