<?xml version="1.0" standalone="no"?>
<!DOCTYPE svg PUBLIC "-//W3C//DTD SVG 20010904//EN"
 "http://www.w3.org/TR/2001/REC-SVG-20010904/DTD/svg10.dtd">
<svg version="1.0" xmlns="http://www.w3.org/2000/svg"
 width="512.000000pt" height="512.000000pt" viewBox="0 0 512.000000 512.000000"
 preserveAspectRatio="xMidYMid meet">

<g transform="translate(0.000000,512.000000) scale(0.100000,-0.100000)"
fill="#484349" stroke="none">
<path d="M0 4590 l0 -150 337 -2 337 -3 226 -1350 225 -1350 1725 -5 1725 -5
31 -22 c41 -30 67 -94 59 -145 -7 -40 -42 -90 -79 -111 -16 -9 -387 -13 -1641
-17 l-1620 -5 -69 -24 c-144 -51 -262 -166 -316 -308 -28 -72 -38 -222 -20
-306 70 -338 471 -514 773 -340 195 114 306 370 249 578 -10 39 -22 78 -27 88
-7 16 38 17 870 17 785 0 877 -2 871 -15 -85 -222 -33 -446 139 -603 101 -92
205 -132 345 -132 147 0 269 50 371 153 147 147 198 386 120 563 l-19 42 51
17 c313 101 407 521 168 748 -31 29 -65 58 -76 65 -20 10 -16 33 168 1144 104
623 191 1143 194 1156 l5 22 -2059 0 -2059 0 -33 203 c-18 111 -35 212 -38
225 l-5 22 -464 0 -464 0 0 -150z m2110 -825 l0 -225 -489 0 -489 0 -6 28
c-12 58 -66 391 -66 406 0 14 51 16 525 16 l525 0 0 -225z m1350 0 l0 -225
-525 0 -525 0 0 225 0 225 525 0 525 0 0 -225z m1300 209 c0 -15 -54 -348 -66
-406 l-6 -28 -464 0 -464 0 0 225 0 225 500 0 c451 0 500 -2 500 -16z m-2650
-959 l0 -225 -428 0 -428 0 -33 203 c-18 111 -35 212 -38 225 l-5 22 466 0
466 0 0 -225z m1350 0 l0 -225 -525 0 -525 0 0 225 0 225 525 0 525 0 0 -225z
m1177 203 c-3 -13 -20 -114 -38 -225 l-33 -203 -403 0 -403 0 0 218 c0 120 3
222 7 225 3 4 202 7 441 7 l434 0 -5 -22z m-2527 -963 l0 -225 -365 0 c-201 0
-365 3 -365 8 0 4 -16 99 -35 212 -19 113 -35 211 -35 218 0 9 87 12 400 12
l400 0 0 -225z m1350 0 l0 -225 -525 0 -525 0 0 225 0 225 525 0 525 0 0 -225z
m1050 213 c0 -7 -16 -105 -35 -218 -19 -113 -35 -208 -35 -213 0 -4 -152 -6
-337 -5 l-338 3 -3 223 -2 222 375 0 c293 0 375 -3 375 -12z m-2974 -1366 c77
-39 117 -109 117 -202 0 -131 -104 -227 -239 -218 -136 9 -227 129 -202 267
25 145 189 222 324 153z m2711 -1 c55 -28 90 -72 109 -138 25 -86 0 -169 -70
-230 -47 -42 -97 -57 -168 -50 -71 6 -126 39 -165 98 -39 59 -45 159 -13 224
53 110 194 154 307 96z"/>
</g>
</svg>
