<?xml version="1.0" standalone="no"?>
<!DOCTYPE svg PUBLIC "-//W3C//DTD SVG 20010904//EN"
 "http://www.w3.org/TR/2001/REC-SVG-20010904/DTD/svg10.dtd">
<svg version="1.0" xmlns="http://www.w3.org/2000/svg"
 width="512.000000pt" height="512.000000pt" viewBox="0 0 512.000000 512.000000"
 preserveAspectRatio="xMidYMid meet">

<g transform="translate(0.000000,512.000000) scale(0.100000,-0.100000)"
fill="#000000" stroke="none">
<path d="M2126 5100 c-60 -24 -109 -69 -139 -130 -19 -40 -22 -65 -27 -221
l-5 -177 -98 -51 c-148 -76 -250 -152 -377 -280 -109 -110 -190 -213 -255
-326 -15 -27 -42 -68 -60 -91 -94 -123 -58 -306 76 -374 30 -16 39 -27 43 -52
3 -18 39 -733 81 -1588 42 -855 80 -1579 86 -1608 17 -88 93 -169 180 -192 25
-7 354 -9 951 -8 l913 3 41 22 c60 32 111 94 128 155 11 39 35 470 91 1618 42
861 78 1580 81 1598 4 23 12 36 28 42 13 5 40 23 60 41 99 87 112 237 31 343
-18 23 -45 64 -60 91 -66 115 -146 217 -259 330 -128 127 -233 205 -384 283
l-87 44 -6 177 c-6 196 -12 221 -74 289 -23 27 -56 48 -91 62 -52 19 -76 20
-437 20 -352 -1 -386 -2 -431 -20z m809 -160 c41 -16 55 -64 55 -190 0 -73 -4
-110 -11 -110 -6 0 -57 10 -112 22 -87 19 -133 22 -307 22 -174 0 -220 -3
-307 -22 -55 -12 -106 -22 -112 -22 -7 0 -11 37 -11 110 0 123 14 174 52 190
32 12 720 13 753 0z m-85 -448 c192 -45 378 -129 521 -237 89 -67 260 -239
292 -294 l18 -31 -1121 0 -1121 0 18 31 c30 53 200 226 283 288 176 132 383
220 605 257 116 19 394 11 505 -14z m960 -762 c46 -46 34 -111 -25 -136 -52
-21 -2398 -21 -2450 0 -59 25 -71 90 -25 136 20 20 39 20 1250 20 1211 0 1230
0 1250 -20z m-150 -357 c2 -138 -154 -3132 -164 -3153 -23 -51 1 -50 -936 -50
-937 0 -913 -1 -936 50 -10 21 -166 3015 -164 3153 l0 37 1100 0 1100 0 0 -37z"/>
</g>
</svg>
