<?xml version="1.0" standalone="no"?>
<!DOCTYPE svg PUBLIC "-//W3C//DTD SVG 20010904//EN"
 "http://www.w3.org/TR/2001/REC-SVG-20010904/DTD/svg10.dtd">
<svg version="1.0" xmlns="http://www.w3.org/2000/svg"
 width="512.000000pt" height="512.000000pt" viewBox="0 0 512.000000 512.000000"
 preserveAspectRatio="xMidYMid meet">

<g transform="translate(0.000000,512.000000) scale(0.100000,-0.100000)"
fill="#000000" stroke="none">
<path d="M383 4566 c-181 -44 -334 -202 -372 -384 -16 -75 -16 -3169 0 -3244
39 -187 200 -348 387 -387 75 -16 4249 -16 4324 0 187 39 348 200 387 387 16
75 16 3169 0 3244 -40 191 -203 351 -394 388 -40 7 -178 10 -418 8 l-359 -3
-24 -28 c-33 -38 -33 -96 0 -134 l24 -28 379 -5 c357 -5 380 -6 424 -26 106
-49 168 -142 177 -264 l5 -70 -2363 0 -2363 0 5 70 c9 122 71 215 177 264 46
21 49 21 1447 26 1543 6 1422 0 1451 68 11 27 11 37 -1 66 -30 72 94 66 -1451
65 -1075 -1 -1402 -4 -1442 -13z m4537 -2006 l0 -1260 -986 -2 -986 -3 -24
-28 c-33 -38 -33 -96 0 -134 l24 -28 987 -3 988 -2 -5 -70 c-9 -122 -71 -215
-177 -264 l-46 -21 -2135 0 -2135 0 -46 21 c-106 49 -168 142 -177 264 l-5 70
1016 0 1017 0 32 29 c27 24 33 36 33 71 0 35 -6 47 -33 71 l-32 29 -1015 0
-1015 0 0 1260 0 1260 2360 0 2360 0 0 -1260z"/>
<path d="M614 3609 c-86 -25 -181 -122 -204 -210 -7 -25 -10 -239 -8 -621 l3
-583 23 -42 c33 -63 74 -106 134 -139 l53 -29 586 -3 c581 -3 587 -2 645 19
77 29 144 96 173 173 21 58 22 64 19 645 l-3 586 -29 53 c-33 60 -76 101 -139
134 l-42 23 -590 2 c-338 1 -603 -2 -621 -8z m1171 -201 c55 -25 55 -26 55
-555 l-1 -488 -37 70 c-46 88 -150 198 -235 249 l-64 39 31 66 c80 170 3 377
-169 458 -51 24 -73 28 -145 28 -76 0 -93 -4 -152 -33 -77 -38 -128 -91 -166
-172 -21 -44 -26 -71 -26 -135 -1 -69 3 -89 31 -147 l31 -66 -65 -38 c-83 -49
-188 -160 -235 -249 l-37 -70 0 490 c0 525 0 523 50 551 33 18 1094 20 1134 2z
m-494 -350 c74 -42 99 -143 51 -208 -106 -142 -330 -16 -253 142 39 81 126
109 202 66z m68 -497 c146 -45 262 -164 305 -310 9 -30 16 -58 16 -63 0 -4
-207 -8 -460 -8 -253 0 -460 4 -460 8 0 24 35 123 57 161 108 187 336 276 542
212z"/>
<path d="M2291 3526 c-67 -37 -65 -143 4 -174 19 -9 133 -12 406 -12 405 0
423 2 449 49 18 35 12 88 -14 118 l-24 28 -399 2 c-318 2 -403 0 -422 -11z"/>
<path d="M3399 3512 c-26 -24 -32 -36 -32 -72 0 -36 6 -48 32 -72 l31 -28 395
0 395 0 32 29 c27 24 33 36 33 71 0 35 -6 47 -33 71 l-32 29 -395 0 -395 0
-31 -28z"/>
<path d="M2291 3066 c-47 -26 -63 -84 -37 -135 23 -44 53 -51 211 -51 158 0
188 7 211 51 27 52 8 115 -41 137 -37 17 -312 16 -344 -2z"/>
<path d="M3337 3046 c-124 -34 -181 -108 -228 -300 -32 -131 -33 -134 -53
-120 -11 8 -39 14 -62 14 -35 0 -47 -5 -68 -31 -33 -39 -34 -83 -2 -129 l23
-35 -34 -39 c-55 -66 -63 -110 -63 -367 0 -156 4 -236 12 -254 20 -44 56 -55
173 -55 l105 0 0 -44 c0 -115 142 -146 186 -41 8 19 14 46 14 60 l0 25 390 0
390 0 0 -25 c0 -75 55 -132 118 -122 52 9 82 46 82 103 l0 44 105 0 c117 0
153 11 173 55 8 18 12 98 12 254 0 257 -8 301 -63 367 l-34 39 23 35 c32 46
31 90 -2 129 -21 26 -33 31 -68 31 -23 0 -51 -6 -62 -14 -20 -14 -21 -11 -53
120 -38 155 -69 211 -143 261 -26 17 -70 36 -98 42 -76 16 -711 13 -773 -3z
m747 -200 c19 -8 37 -25 44 -42 12 -31 72 -266 72 -283 0 -8 -146 -11 -470
-11 -324 0 -470 3 -470 11 0 17 60 252 72 283 21 52 43 55 396 56 252 0 330
-3 356 -14z m301 -561 c25 -24 25 -27 25 -190 l0 -165 -680 0 -680 0 0 165 c0
163 0 166 25 190 l24 25 631 0 631 0 24 -25z"/>
<path d="M3199 2192 c-73 -66 -8 -192 87 -168 75 19 100 112 45 167 -40 39
-89 40 -132 1z"/>
<path d="M4129 2191 c-55 -55 -30 -148 45 -167 95 -24 160 102 87 168 -43 39
-92 38 -132 -1z"/>
<path d="M2291 2606 c-47 -26 -63 -84 -37 -135 23 -44 53 -51 211 -51 158 0
188 7 211 51 27 52 8 115 -41 137 -37 17 -312 16 -344 -2z"/>
<path d="M464 1770 c-12 -4 -31 -21 -44 -37 -29 -37 -23 -98 15 -130 26 -23
30 -23 301 -23 l275 0 24 24 c49 49 43 115 -15 154 -32 21 -40 22 -284 21
-138 0 -261 -4 -272 -9z"/>
<path d="M1434 1770 c-12 -4 -31 -21 -44 -37 -29 -37 -23 -98 15 -130 26 -23
30 -23 300 -23 270 0 274 0 300 23 17 14 28 36 32 63 5 36 1 46 -25 75 l-30
34 -264 2 c-144 1 -273 -2 -284 -7z"/>
<path d="M2554 1290 c-55 -22 -72 -108 -31 -155 14 -17 36 -28 63 -32 36 -5
46 -1 75 25 28 25 34 37 34 72 0 72 -72 118 -141 90z"/>
<path d="M3544 4570 c-56 -22 -72 -108 -30 -157 20 -23 32 -28 69 -28 52 0 83
22 96 69 21 82 -56 148 -135 116z"/>
</g>
</svg>
