<?xml version="1.0" standalone="no"?>
<!DOCTYPE svg PUBLIC "-//W3C//DTD SVG 20010904//EN"
 "http://www.w3.org/TR/2001/REC-SVG-20010904/DTD/svg10.dtd">
<svg version="1.0" xmlns="http://www.w3.org/2000/svg"
 width="512.000000pt" height="512.000000pt" viewBox="0 0 512.000000 512.000000"
 preserveAspectRatio="xMidYMid meet">

<g transform="translate(0.000000,512.000000) scale(0.100000,-0.100000)"
fill="#000000" stroke="none">
<path d="M2255 5110 c-491 -44 -757 -146 -852 -327 -55 -104 -63 -167 -63
-507 l0 -306 610 0 611 0 -3 -77 -3 -78 -920 -5 c-805 -5 -926 -8 -970 -22
-308 -98 -480 -292 -560 -632 -92 -391 -98 -691 -19 -1076 85 -414 235 -634
488 -716 77 -25 94 -27 344 -32 l262 -5 0 291 c0 160 5 325 11 368 40 289 243
529 534 631 l80 28 735 5 735 5 80 28 c197 70 333 213 397 417 l23 75 0 675
c0 627 -1 679 -18 735 -78 250 -292 427 -587 484 -200 39 -691 61 -915 41z
m-290 -388 c83 -40 129 -116 130 -213 0 -56 -4 -73 -30 -115 -98 -158 -323
-147 -401 21 -90 192 113 400 301 307z"/>
<path d="M3928 3478 c-5 -376 -7 -390 -83 -543 -102 -208 -288 -359 -509 -415
-75 -19 -112 -20 -753 -20 -753 0 -766 -1 -903 -68 -149 -72 -283 -240 -325
-407 -23 -91 -22 -1376 1 -1456 48 -163 200 -315 409 -409 153 -69 405 -131
613 -151 323 -32 739 39 1007 170 237 117 352 252 385 453 5 35 10 172 10 306
l0 242 -610 0 -610 0 0 75 0 74 968 3 c900 3 971 5 1022 22 196 64 322 226
433 556 73 218 96 341 104 550 7 190 -7 337 -52 566 -95 478 -240 701 -498
770 -38 10 -124 14 -329 14 l-277 0 -3 -332z m-580 -2637 c111 -57 154 -193
96 -309 -109 -218 -426 -138 -427 108 0 92 62 182 148 215 51 19 130 13 183
-14z"/>
</g>
</svg>
